<svg width="480" height="160" viewBox="0 0 480 160" fill="none" xmlns="http://www.w3.org/2000/svg">
  <defs>
    <linearGradient id="grad-circle" x1="0" y1="0" x2="1" y2="1">
      <stop offset="0" stop-color="#0EA5E9" />
      <stop offset="1" stop-color="#10B981" />
    </linearGradient>
    <linearGradient id="grad-leaf" x1="0" y1="0" x2="1" y2="1">
      <stop offset="0" stop-color="#F0FDF4" />
      <stop offset="1" stop-color="#DCFCE7" />
    </linearGradient>
    <filter id="soft-shadow" x="-10%" y="-10%" width="140%" height="140%">
      <feDropShadow dx="0" dy="10" stdDeviation="12" flood-color="#0f172a" flood-opacity="0.18" />
    </filter>
  </defs>

  <rect x="12" y="18" width="456" height="124" rx="40" fill="#F8FAFC" stroke="rgba(15,23,42,0.08)" stroke-width="2" />

  <g transform="translate(36 30)">
    <circle cx="52" cy="52" r="52" fill="url(#grad-circle)" filter="url(#soft-shadow)" />
    <path d="M52 18c18 9 30 24 30 42s-12 33-30 42c-18-9-30-24-30-42S34 27 52 18z" fill="white" fill-opacity="0.18" />
    <path d="M52 28c10 12 10 24 0 36-10-12-10-24 0-36z" fill="url(#grad-leaf)" />
    <path d="M28 66c16-6 32-6 48 0-16 6-32 6-48 0z" fill="white" fill-opacity="0.5" />
  </g>

  <g font-family="'Inter', 'Segoe UI', system-ui, -apple-system, sans-serif">
    <text x="155" y="86" font-size="44" font-weight="700" letter-spacing="0.02em" fill="#0F172A">
      DeeDees
    </text>
    <text x="155" y="118" font-size="20" font-weight="600" letter-spacing="0.28em" fill="#0EA5E9">
      HEALTH · WELLNESS
    </text>
  </g>
</svg>

